# xmcd
#
# Track frame offsets: 
#        150
#        21010
#        36596
#        59131
#        80988
#        104077
#        122493
#        143923
#        162395
#        184995
#        203610
#        225136
#
# Disc length: 3328 seconds
#
# Revision: 0
# Processed by: cddbd v1.5.1PL0 Copyright (c) Steve Scherf et al.
# Submitted via: ExactAudioCopy v0.95a5
#
DISCID=ac0cfe0c
DTITLE=ฦ๋ทๅ - ฮาบอฒิญำะธ๖ิผปแ
DYEAR=2004
DGENRE=Folklore
TTITLE0=ภถษซตฤรษนลธ฿ิญ
TTITLE1=ฮาบอฒิญำะธ๖ิผปแ
TTITLE2=ืฃธฃย่ย่ฃจษ๎ว้ฦชฃฉ
TTITLE3=ฮาหผฤ๎ฒิญ
TTITLE4=ฒิญมตฃจพญตไฦชฃฉ
TTITLE5=บฺะกืำฃจศคฮถฦชฃฉ
TTITLE6=ฒิญิฺฤฤภ๏
TTITLE7=ธ'๏รทมึ
TTITLE8=ฒิญว้หผ
TTITLE9=ืฃธฃย่ย่ฃจผคว้ฦชฃฉ
TTITLE10=ถ๕ถ๛ถเหนมต
TTITLE11=ธธวืตฤฒิญฤธวืตฤบำ
EXTD=
EXTT0=
EXTT1=
EXTT2=
EXTT3=
EXTT4=
EXTT5=
EXTT6=
EXTT7=
EXTT8=
EXTT9=
EXTT10=
EXTT11=
PLAYORDER=
